<svg width="166" height="177" viewBox="0 0 166 177" fill="none" xmlns="http://www.w3.org/2000/svg">
<g filter="url(#filter0_i_314_599)">
<path d="M122.298 62.4552C122.46 61.5359 122.545 60.5902 122.545 59.625C122.545 50.5957 115.157 43.2759 106.043 43.2759C99.268 43.2759 93.4464 47.3213 90.9051 53.1071C88.8463 51.346 86.1747 50.2827 83.2552 50.2827C76.7455 50.2827 71.4684 55.5692 71.4684 62.0904C71.4684 62.4535 71.4848 62.8128 71.5168 63.1676C68.3857 64.6871 66.2298 67.8754 66.2298 71.5625C66.2298 76.7222 70.4515 80.9049 75.6593 80.9049H120.187C125.395 80.9049 129.617 76.7222 129.617 71.5625C129.617 67.1219 126.49 63.4049 122.298 62.4552Z" fill="url(#paint0_linear_314_599)"/>
</g>
<g filter="url(#filter1_f_314_599)">
<path d="M89.5873 53.4085C80.5595 65.6658 78.9941 82.3937 86.9578 96.1874C94.9216 109.981 110.191 116.989 125.32 115.3C122.103 119.667 117.939 123.467 112.921 126.365C93.8189 137.393 69.5775 131.167 58.776 112.458C47.9745 93.7494 54.7032 69.6427 73.805 58.6143C78.8233 55.717 84.1964 54.0105 89.5873 53.4085Z" fill="#FFEE94"/>
</g>
<g filter="url(#filter2_i_314_599)">
<path d="M88.7458 58.5738C80.5049 69.7627 79.0759 85.0325 86.3455 97.6238C93.6151 110.215 107.554 116.612 121.364 115.07C118.427 119.057 114.626 122.526 110.045 125.171C92.6085 135.238 70.4802 129.554 60.6202 112.476C50.7602 95.3984 56.9024 73.393 74.3392 63.3259C78.92 60.6811 83.8248 59.1234 88.7458 58.5738Z" fill="url(#paint1_linear_314_599)"/>
</g>
<g filter="url(#filter3_i_314_599)">
<path d="M83.4019 118.999C83.5638 118.08 83.6482 117.134 83.6482 116.169C83.6482 107.14 76.2602 99.8199 67.1466 99.8199C60.3715 99.8199 54.55 103.865 52.0086 109.651C49.9498 107.89 47.2782 106.827 44.3588 106.827C37.8491 106.827 32.5719 112.113 32.5719 118.634C32.5719 118.998 32.5883 119.357 32.6203 119.712C29.4893 121.231 27.3333 124.419 27.3333 128.107C27.3333 133.266 31.555 137.449 36.7628 137.449H81.2909C86.4986 137.449 90.7203 133.266 90.7203 128.107C90.7203 123.666 87.5933 119.949 83.4019 118.999Z" fill="url(#paint2_linear_314_599)"/>
</g>
<g filter="url(#filter4_di_314_599)">
<path d="M58.9422 59.6205C55.1548 61.3023 53.6766 62.7236 52.3217 66.2409C51.2427 62.8323 49.9159 61.3118 45.7013 59.6205C50.0368 58.2079 51.2135 56.5727 52.3217 53C53.6835 56.2928 54.5246 58.0898 58.9422 59.6205Z" fill="url(#paint3_linear_314_599)"/>
</g>
<g filter="url(#filter5_di_314_599)">
<path d="M119.808 95.9958C116.021 97.6777 114.542 99.099 113.187 102.616C112.108 99.2076 110.782 97.6872 106.567 95.9958C110.903 94.5833 112.079 92.9481 113.187 89.3754C114.549 92.6681 115.39 94.4652 119.808 95.9958Z" fill="url(#paint4_linear_314_599)"/>
</g>
<g filter="url(#filter6_di_314_599)">
<path d="M42.5622 68.9478C41.0666 69.6119 40.4828 70.1731 39.9478 71.5621C39.5217 70.216 38.9978 69.6157 37.3335 68.9478C39.0455 68.3899 39.5102 67.7442 39.9478 66.3334C40.4856 67.6337 40.8177 68.3433 42.5622 68.9478Z" fill="url(#paint5_linear_314_599)"/>
</g>
<defs>
<filter id="filter0_i_314_599" x="66.2298" y="43.2759" width="63.387" height="47.629" filterUnits="userSpaceOnUse" color-interpolation-filters="sRGB">
<feFlood flood-opacity="0" result="BackgroundImageFix"/>
<feBlend mode="normal" in="SourceGraphic" in2="BackgroundImageFix" result="shape"/>
<feColorMatrix in="SourceAlpha" type="matrix" values="0 0 0 0 0 0 0 0 0 0 0 0 0 0 0 0 0 0 127 0" result="hardAlpha"/>
<feOffset dy="11"/>
<feGaussianBlur stdDeviation="5"/>
<feComposite in2="hardAlpha" operator="arithmetic" k2="-1" k3="1"/>
<feColorMatrix type="matrix" values="0 0 0 0 1 0 0 0 0 1 0 0 0 0 1 0 0 0 1 0"/>
<feBlend mode="normal" in2="shape" result="effect1_innerShadow_314_599"/>
</filter>
<filter id="filter1_f_314_599" x="0.622284" y="0.408447" width="177.698" height="184.41" filterUnits="userSpaceOnUse" color-interpolation-filters="sRGB">
<feFlood flood-opacity="0" result="BackgroundImageFix"/>
<feBlend mode="normal" in="SourceGraphic" in2="BackgroundImageFix" result="shape"/>
<feGaussianBlur stdDeviation="26.5" result="effect1_foregroundBlur_314_599"/>
</filter>
<filter id="filter2_i_314_599" x="55.9157" y="58.5739" width="65.4482" height="75.5751" filterUnits="userSpaceOnUse" color-interpolation-filters="sRGB">
<feFlood flood-opacity="0" result="BackgroundImageFix"/>
<feBlend mode="normal" in="SourceGraphic" in2="BackgroundImageFix" result="shape"/>
<feColorMatrix in="SourceAlpha" type="matrix" values="0 0 0 0 0 0 0 0 0 0 0 0 0 0 0 0 0 0 127 0" result="hardAlpha"/>
<feOffset dy="4"/>
<feGaussianBlur stdDeviation="4"/>
<feComposite in2="hardAlpha" operator="arithmetic" k2="-1" k3="1"/>
<feColorMatrix type="matrix" values="0 0 0 0 1 0 0 0 0 1 0 0 0 0 1 0 0 0 0.55 0"/>
<feBlend mode="normal" in2="shape" result="effect1_innerShadow_314_599"/>
</filter>
<filter id="filter3_i_314_599" x="27.3333" y="99.8199" width="63.387" height="47.629" filterUnits="userSpaceOnUse" color-interpolation-filters="sRGB">
<feFlood flood-opacity="0" result="BackgroundImageFix"/>
<feBlend mode="normal" in="SourceGraphic" in2="BackgroundImageFix" result="shape"/>
<feColorMatrix in="SourceAlpha" type="matrix" values="0 0 0 0 0 0 0 0 0 0 0 0 0 0 0 0 0 0 127 0" result="hardAlpha"/>
<feOffset dy="11"/>
<feGaussianBlur stdDeviation="5"/>
<feComposite in2="hardAlpha" operator="arithmetic" k2="-1" k3="1"/>
<feColorMatrix type="matrix" values="0 0 0 0 1 0 0 0 0 1 0 0 0 0 1 0 0 0 1 0"/>
<feBlend mode="normal" in2="shape" result="effect1_innerShadow_314_599"/>
</filter>
<filter id="filter4_di_314_599" x="36.9338" y="50.2326" width="30.7758" height="30.7759" filterUnits="userSpaceOnUse" color-interpolation-filters="sRGB">
<feFlood flood-opacity="0" result="BackgroundImageFix"/>
<feColorMatrix in="SourceAlpha" type="matrix" values="0 0 0 0 0 0 0 0 0 0 0 0 0 0 0 0 0 0 127 0" result="hardAlpha"/>
<feOffset dy="6"/>
<feGaussianBlur stdDeviation="4.38372"/>
<feColorMatrix type="matrix" values="0 0 0 0 0.278813 0 0 0 0 0.232917 0 0 0 0 0.5375 0 0 0 1 0"/>
<feBlend mode="normal" in2="BackgroundImageFix" result="effect1_dropShadow_314_599"/>
<feBlend mode="normal" in="SourceGraphic" in2="effect1_dropShadow_314_599" result="shape"/>
<feColorMatrix in="SourceAlpha" type="matrix" values="0 0 0 0 0 0 0 0 0 0 0 0 0 0 0 0 0 0 127 0" result="hardAlpha"/>
<feOffset dy="4"/>
<feGaussianBlur stdDeviation="2"/>
<feComposite in2="hardAlpha" operator="arithmetic" k2="-1" k3="1"/>
<feColorMatrix type="matrix" values="0 0 0 0 1 0 0 0 0 1 0 0 0 0 1 0 0 0 0.44 0"/>
<feBlend mode="normal" in2="shape" result="effect2_innerShadow_314_599"/>
</filter>
<filter id="filter5_di_314_599" x="97.7995" y="86.6079" width="30.7758" height="30.7759" filterUnits="userSpaceOnUse" color-interpolation-filters="sRGB">
<feFlood flood-opacity="0" result="BackgroundImageFix"/>
<feColorMatrix in="SourceAlpha" type="matrix" values="0 0 0 0 0 0 0 0 0 0 0 0 0 0 0 0 0 0 127 0" result="hardAlpha"/>
<feOffset dy="6"/>
<feGaussianBlur stdDeviation="4.38372"/>
<feColorMatrix type="matrix" values="0 0 0 0 0.278813 0 0 0 0 0.232917 0 0 0 0 0.5375 0 0 0 1 0"/>
<feBlend mode="normal" in2="BackgroundImageFix" result="effect1_dropShadow_314_599"/>
<feBlend mode="normal" in="SourceGraphic" in2="effect1_dropShadow_314_599" result="shape"/>
<feColorMatrix in="SourceAlpha" type="matrix" values="0 0 0 0 0 0 0 0 0 0 0 0 0 0 0 0 0 0 127 0" result="hardAlpha"/>
<feOffset dy="4"/>
<feGaussianBlur stdDeviation="2"/>
<feComposite in2="hardAlpha" operator="arithmetic" k2="-1" k3="1"/>
<feColorMatrix type="matrix" values="0 0 0 0 1 0 0 0 0 1 0 0 0 0 1 0 0 0 0.44 0"/>
<feBlend mode="normal" in2="shape" result="effect2_innerShadow_314_599"/>
</filter>
<filter id="filter6_di_314_599" x="28.566" y="63.5659" width="22.7636" height="22.7637" filterUnits="userSpaceOnUse" color-interpolation-filters="sRGB">
<feFlood flood-opacity="0" result="BackgroundImageFix"/>
<feColorMatrix in="SourceAlpha" type="matrix" values="0 0 0 0 0 0 0 0 0 0 0 0 0 0 0 0 0 0 127 0" result="hardAlpha"/>
<feOffset dy="6"/>
<feGaussianBlur stdDeviation="4.38372"/>
<feColorMatrix type="matrix" values="0 0 0 0 0.278813 0 0 0 0 0.232917 0 0 0 0 0.5375 0 0 0 1 0"/>
<feBlend mode="normal" in2="BackgroundImageFix" result="effect1_dropShadow_314_599"/>
<feBlend mode="normal" in="SourceGraphic" in2="effect1_dropShadow_314_599" result="shape"/>
<feColorMatrix in="SourceAlpha" type="matrix" values="0 0 0 0 0 0 0 0 0 0 0 0 0 0 0 0 0 0 127 0" result="hardAlpha"/>
<feOffset dy="4"/>
<feGaussianBlur stdDeviation="2"/>
<feComposite in2="hardAlpha" operator="arithmetic" k2="-1" k3="1"/>
<feColorMatrix type="matrix" values="0 0 0 0 1 0 0 0 0 1 0 0 0 0 1 0 0 0 0.44 0"/>
<feBlend mode="normal" in2="shape" result="effect2_innerShadow_314_599"/>
</filter>
<linearGradient id="paint0_linear_314_599" x1="70.2614" y1="77.5452" x2="134.208" y2="29.725" gradientUnits="userSpaceOnUse">
<stop stop-color="white"/>
<stop offset="1" stop-color="white" stop-opacity="0.58"/>
</linearGradient>
<linearGradient id="paint1_linear_314_599" x1="90.5403" y1="52.64" x2="77.4575" y2="131.856" gradientUnits="userSpaceOnUse">
<stop stop-color="#FFEE94"/>
<stop offset="1" stop-color="#FF9900"/>
</linearGradient>
<linearGradient id="paint2_linear_314_599" x1="31.365" y1="134.089" x2="95.3119" y2="86.269" gradientUnits="userSpaceOnUse">
<stop stop-color="white"/>
<stop offset="1" stop-color="white" stop-opacity="0.58"/>
</linearGradient>
<linearGradient id="paint3_linear_314_599" x1="50.4065" y1="66.8613" x2="56.6377" y2="55.1619" gradientUnits="userSpaceOnUse">
<stop stop-color="#FF9900"/>
<stop offset="1" stop-color="#FFEE94"/>
</linearGradient>
<linearGradient id="paint4_linear_314_599" x1="111.272" y1="103.237" x2="117.503" y2="91.5372" gradientUnits="userSpaceOnUse">
<stop stop-color="#FF9900"/>
<stop offset="1" stop-color="#FFEE94"/>
</linearGradient>
<linearGradient id="paint5_linear_314_599" x1="39.1915" y1="71.8071" x2="41.6521" y2="67.1871" gradientUnits="userSpaceOnUse">
<stop stop-color="#FF9900"/>
<stop offset="1" stop-color="#FFEE94"/>
</linearGradient>
</defs>
</svg>
